<svg xmlns="http://www.w3.org/2000/svg" xmlns:xlink="http://www.w3.org/1999/xlink" width="288" zoomAndPan="magnify" viewBox="0 0 216 215.999996" height="288" preserveAspectRatio="xMidYMid meet" version="1.0"><defs><g/><clipPath id="4c86bc2962"><rect x="0" width="216" y="0" height="209"/></clipPath></defs><g transform="matrix(1, 0, 0, 1, 0, 3)"><g clip-path="url(#4c86bc2962)"><g fill="#888888" fill-opacity="1"><g transform="translate(0.0000022, 168.523311)"><g><path d="M 71.921875 0 L 71.921875 -3.125 C 75.460938 -3.332031 78.144531 -3.75 79.96875 -4.375 C 81.800781 -5 83.03125 -6.25 83.65625 -8.125 C 84.28125 -10 84.59375 -12.816406 84.59375 -16.578125 L 84.59375 -94.125 C 84.59375 -97.976562 84.28125 -100.816406 83.65625 -102.640625 C 83.03125 -104.472656 81.800781 -105.726562 79.96875 -106.40625 C 78.144531 -107.082031 75.460938 -107.472656 71.921875 -107.578125 L 71.921875 -110.703125 C 74.316406 -110.597656 77.335938 -110.492188 80.984375 -110.390625 C 84.640625 -110.285156 88.238281 -110.234375 91.78125 -110.234375 C 95.84375 -110.234375 99.644531 -110.285156 103.1875 -110.390625 C 106.738281 -110.492188 109.609375 -110.597656 111.796875 -110.703125 L 111.796875 -107.578125 C 108.253906 -107.472656 105.570312 -107.082031 103.75 -106.40625 C 101.925781 -105.726562 100.695312 -104.472656 100.0625 -102.640625 C 99.4375 -100.816406 99.125 -97.976562 99.125 -94.125 L 99.125 -16.578125 C 99.125 -12.816406 99.4375 -10 100.0625 -8.125 C 100.695312 -6.25 101.925781 -5 103.75 -4.375 C 105.570312 -3.75 108.253906 -3.332031 111.796875 -3.125 L 111.796875 0 C 109.609375 -0.207031 106.738281 -0.335938 103.1875 -0.390625 C 99.644531 -0.441406 95.84375 -0.46875 91.78125 -0.46875 C 88.238281 -0.46875 84.640625 -0.441406 80.984375 -0.390625 C 77.335938 -0.335938 74.316406 -0.207031 71.921875 0 Z M 6.5625 0 L 6.5625 -3.125 C 10.113281 -3.332031 12.800781 -3.75 14.625 -4.375 C 16.445312 -5 17.671875 -6.25 18.296875 -8.125 C 18.921875 -10 19.234375 -12.816406 19.234375 -16.578125 L 19.234375 -94.125 C 19.234375 -97.976562 18.921875 -100.816406 18.296875 -102.640625 C 17.671875 -104.472656 16.445312 -105.726562 14.625 -106.40625 C 12.800781 -107.082031 10.113281 -107.472656 6.5625 -107.578125 L 6.5625 -110.703125 C 8.75 -110.597656 11.613281 -110.492188 15.15625 -110.390625 C 18.707031 -110.285156 22.515625 -110.234375 26.578125 -110.234375 C 30.222656 -110.234375 33.84375 -110.285156 37.4375 -110.390625 C 41.039062 -110.492188 44.039062 -110.597656 46.4375 -110.703125 L 46.4375 -107.578125 C 42.894531 -107.472656 40.210938 -107.082031 38.390625 -106.40625 C 36.566406 -105.726562 35.34375 -104.472656 34.71875 -102.640625 C 34.09375 -100.816406 33.78125 -97.976562 33.78125 -94.125 L 33.78125 -16.578125 C 33.78125 -12.816406 34.09375 -10 34.71875 -8.125 C 35.34375 -6.25 36.566406 -5 38.390625 -4.375 C 40.210938 -3.75 42.894531 -3.332031 46.4375 -3.125 L 46.4375 0 C 44.039062 -0.207031 41.039062 -0.335938 37.4375 -0.390625 C 33.84375 -0.441406 30.222656 -0.46875 26.578125 -0.46875 C 22.515625 -0.46875 18.707031 -0.441406 15.15625 -0.390625 C 11.613281 -0.335938 8.75 -0.207031 6.5625 0 Z M 28.296875 -54.09375 L 28.296875 -57.234375 L 90.0625 -57.234375 L 90.0625 -54.09375 Z M 28.296875 -54.09375 "/></g></g></g><g fill="#bba14f" fill-opacity="1"><g transform="translate(104.501301, 168.523311)"><g><path d="M 104.765625 -110.703125 L 104.765625 -107.578125 C 101.210938 -107.472656 98.523438 -106.953125 96.703125 -106.015625 C 94.878906 -105.078125 93.65625 -103.5625 93.03125 -101.46875 C 92.40625 -99.382812 92.09375 -96.414062 92.09375 -92.5625 L 92.09375 0.78125 C 91.46875 0.78125 90.867188 0.78125 90.296875 0.78125 C 89.722656 0.78125 89.125 0.78125 88.5 0.78125 L 22.828125 -100.703125 L 22.828125 -18.140625 C 22.828125 -14.390625 23.164062 -11.441406 23.84375 -9.296875 C 24.519531 -7.160156 25.875 -5.648438 27.90625 -4.765625 C 29.9375 -3.878906 32.988281 -3.332031 37.0625 -3.125 L 37.0625 0 C 35.1875 -0.207031 32.734375 -0.335938 29.703125 -0.390625 C 26.679688 -0.441406 23.816406 -0.46875 21.109375 -0.46875 C 18.503906 -0.46875 15.867188 -0.441406 13.203125 -0.390625 C 10.546875 -0.335938 8.332031 -0.207031 6.5625 0 L 6.5625 -3.125 C 10.113281 -3.332031 12.800781 -3.878906 14.625 -4.765625 C 16.445312 -5.648438 17.671875 -7.160156 18.296875 -9.296875 C 18.921875 -11.441406 19.234375 -14.390625 19.234375 -18.140625 L 19.234375 -94.125 C 19.234375 -97.976562 18.921875 -100.816406 18.296875 -102.640625 C 17.671875 -104.472656 16.445312 -105.726562 14.625 -106.40625 C 12.800781 -107.082031 10.113281 -107.472656 6.5625 -107.578125 L 6.5625 -110.703125 C 8.332031 -110.597656 10.546875 -110.492188 13.203125 -110.390625 C 15.867188 -110.285156 18.503906 -110.234375 21.109375 -110.234375 C 23.398438 -110.234375 25.585938 -110.285156 27.671875 -110.390625 C 29.753906 -110.492188 31.628906 -110.597656 33.296875 -110.703125 L 88.5 -25.640625 L 88.5 -92.5625 C 88.5 -96.414062 88.160156 -99.382812 87.484375 -101.46875 C 86.804688 -103.5625 85.453125 -105.078125 83.421875 -106.015625 C 81.390625 -106.953125 78.335938 -107.472656 74.265625 -107.578125 L 74.265625 -110.703125 C 76.140625 -110.597656 78.613281 -110.492188 81.6875 -110.390625 C 84.769531 -110.285156 87.613281 -110.234375 90.21875 -110.234375 C 92.925781 -110.234375 95.609375 -110.285156 98.265625 -110.390625 C 100.929688 -110.492188 103.097656 -110.597656 104.765625 -110.703125 Z M 104.765625 -110.703125 "/></g></g></g></g></g></svg>